<svg xmlns="http://www.w3.org/2000/svg" viewBox="0 0 64 64">
  <defs>
    <linearGradient id="bg" x1="8" y1="5" x2="57" y2="60" gradientUnits="userSpaceOnUse">
      <stop stop-color="#fff"/>
      <stop offset="1" stop-color="#eee9e1"/>
    </linearGradient>
    <linearGradient id="a" x1="13" y1="10" x2="43" y2="53" gradientUnits="userSpaceOnUse">
      <stop stop-color="#ffb347"/>
      <stop offset="1" stop-color="#ff5a5f"/>
    </linearGradient>
    <linearGradient id="b" x1="31" y1="33" x2="57" y2="54" gradientUnits="userSpaceOnUse">
      <stop stop-color="#ff8a3d"/>
      <stop offset="1" stop-color="#ff4d68"/>
    </linearGradient>
  </defs>
  <rect x="2" y="2" width="60" height="60" rx="17" fill="url(#bg)" stroke="#ddd7ce" stroke-width="2"/>
  <path d="M25 10c1.5-2.6 5.2-2.5 6.7.1l5.7 9.8c.7 1.3.7 2.8 0 4.1L23 49.1c-1.5 2.7-5.3 2.7-6.9 0l-5.7-9.9c-.7-1.3-.7-2.8 0-4.1L25 10Z" fill="url(#a)"/>
  <path d="M34 39c.7-1.3 2-2 3.5-2h11.3c1.4 0 2.7.8 3.4 2l5.7 9.8c1.5 2.7-.4 6-3.4 6H28.6c-3.1 0-5-3.3-3.4-6l5.7-9.8c.7-1.3 1.9-2 3.1-2Z" fill="url(#b)"/>
</svg>
