<svg width="100%" height="100%" viewBox="0 0 92 29" fill="none" xmlns="http://www.w3.org/2000/svg">
<path d="M47.3006 18.9115C47.3006 18.1168 47.5122 17.3282 48.0511 16.7199C48.5399 16.1691 49.209 15.8325 49.8979 15.5916C51.406 15.0646 52.786 15.0182 54.5255 15.0203C54.6297 15.0203 54.8392 15.0182 54.8392 15.0182V14.7218C54.8392 13.7521 54.2712 12.8894 53.3384 12.559C53.0299 12.4488 52.7005 12.4004 52.3733 12.4004C50.9902 12.4004 49.999 13.0603 49.8125 14.4037H47.3236C47.6685 12.0587 49.7207 10.3962 52.3733 10.3962C55.277 10.3962 57.351 12.0134 57.351 14.836V22.0532H54.8392V20.3907C54.3306 21.415 52.9246 22.2344 51.3571 22.2344C48.8682 22.2344 47.3006 20.8004 47.3006 18.9104V18.9115ZM52.5796 16.9515C52.1784 16.9906 51.7792 17.0482 51.3883 17.146C50.9058 17.2675 50.3951 17.4703 50.0886 17.8779C50.0386 17.9449 49.9938 18.0169 49.9573 18.0921C49.851 18.3113 49.8125 18.5563 49.8125 18.7982C49.8125 19.7772 50.5743 20.3228 51.7719 20.3228C53.5927 20.3228 54.8392 19.0021 54.8392 17.181V16.8774C54.8392 16.8774 54.1763 16.8743 54.1305 16.8753C53.3186 16.8835 53.2883 16.8938 52.8683 16.9268C52.7714 16.934 52.6755 16.9422 52.5786 16.9525L52.5796 16.9515Z" fill="#231F20"></path>
<path d="M57.4094 26.2893V24.1944C57.5709 24.2171 57.8242 24.2397 58.0556 24.2397C59.0916 24.2397 59.4147 23.4882 59.4147 22.2128V10.5774H61.9286V22.5093C61.9286 24.9922 60.7519 26.3809 58.3318 26.3809C57.9868 26.3809 57.5939 26.3356 57.4104 26.2903L57.4094 26.2893ZM59.1625 7.23074C59.1625 6.40001 59.7993 5.79163 60.6602 5.79163C61.5211 5.79163 62.1787 6.40001 62.1787 7.23074C62.1787 8.06148 61.5221 8.66986 60.6602 8.66986C59.7982 8.66986 59.1625 8.06148 59.1625 7.23074Z" fill="#231F20"></path>
<path d="M78.3012 20.4371V22.0543H75.7654V5.93265H78.3012V12.1709C78.9693 11.1003 80.4691 10.3951 82.0815 10.3951C85.5167 10.3951 87.7763 12.7401 87.7763 16.3153C87.7763 19.8904 85.5167 22.2354 82.0815 22.2354C80.492 22.2354 78.9693 21.5066 78.3012 20.4371ZM85.2165 16.3153C85.2165 14.0619 83.7657 12.5363 81.7584 12.5363C79.751 12.5363 78.3002 14.0619 78.3002 16.3153C78.3002 18.5687 79.7301 20.0953 81.7584 20.0953C83.7866 20.0953 85.2165 18.546 85.2165 16.3153Z" fill="#231F20"></path>
<path d="M89.1177 7.23075C89.1177 6.4556 89.7117 5.8884 90.5164 5.8884C91.321 5.8884 91.9317 6.4556 91.9317 7.23075C91.9317 8.0059 91.3189 8.5731 90.5164 8.5731C89.7138 8.5731 89.1177 8.0059 89.1177 7.23075ZM89.3522 10.5774H91.8661V22.0533H89.3522V10.5774Z" fill="#231F20"></path>
<path d="M43.9102 10.5774L37.5619 16.3091L43.9258 22.0532H47.3006L42.9034 17.9665L41.1378 16.3091L42.9034 14.6518L47.286 10.5774H43.9102Z" fill="#231F20"></path>
<path d="M38.8188 5.92648H36.3049V22.0471H38.8188V5.92648Z" fill="#231F20"></path>
<path d="M63.5868 18.9115C63.5868 18.1168 63.7984 17.3282 64.3372 16.7199C64.826 16.1691 65.4951 15.8325 66.1841 15.5916C67.6922 15.0646 69.0721 15.0182 70.8116 15.0203C70.9159 15.0203 71.1253 15.0182 71.1253 15.0182V14.7218C71.1253 13.7521 70.5573 12.8894 69.6245 12.559C69.316 12.4488 68.9867 12.4004 68.6594 12.4004C67.2763 12.4004 66.2852 13.0603 66.0986 14.4037H63.6097C63.9547 12.0587 66.0069 10.3962 68.6594 10.3962C71.5631 10.3962 73.6372 12.0134 73.6372 14.836V22.0532H71.1253V20.3907C70.6167 21.415 69.2107 22.2344 67.6432 22.2344C65.1543 22.2344 63.5868 20.8004 63.5868 18.9104V18.9115ZM68.8647 16.9515C68.4634 16.9906 68.0643 17.0482 67.6734 17.146C67.1909 17.2675 66.6802 17.4703 66.3737 17.8779C66.3237 17.9449 66.2789 18.0169 66.2424 18.0921C66.1361 18.3113 66.0975 18.5563 66.0975 18.7982C66.0975 19.7772 66.8594 20.3228 68.057 20.3228C69.8778 20.3228 71.1243 19.0021 71.1243 17.181V16.8774C71.1243 16.8774 70.4614 16.8743 70.4156 16.8753C69.6037 16.8835 69.5734 16.8938 69.1534 16.9268C69.0565 16.934 68.9606 16.9422 68.8637 16.9525L68.8647 16.9515Z" fill="#231F20"></path>
<g clip-path="url(#clip0_420_36)">
<path d="M0 0.561076C0 0.251202 0.251202 0 0.561076 0H27.4927C27.8026 0 28.0538 0.251202 28.0538 0.561076V27.4927C28.0538 27.8026 27.8026 28.0538 27.4927 28.0538H0.561076C0.251202 28.0538 0 27.8026 0 27.4927V0.561076Z" fill="#0A0A0A"></path>
<path d="M14.0275 14.0262L6.17184 6.17184H21.882L14.0275 14.0262Z" fill="url(#paint0_linear_420_36)"></path>
<path d="M21.882 21.8791L6.17185 21.8819L14.0275 14.0261L21.882 21.8791Z" fill="url(#paint1_linear_420_36)"></path>
<path d="M14.0275 14.0262L6.17184 21.882V6.17184L14.0275 14.0262Z" fill="url(#paint2_linear_420_36)"></path>
</g>
<defs>
<linearGradient id="paint0_linear_420_36" x1="14.0948" y1="14.0947" x2="14.0948" y2="6.25659" gradientUnits="userSpaceOnUse">
<stop stop-color="white"></stop>
<stop offset="1" stop-color="white" stop-opacity="0.8"></stop>
</linearGradient>
<linearGradient id="paint1_linear_420_36" x1="14.0262" y1="14.0261" x2="6.25668" y2="21.7956" gradientUnits="userSpaceOnUse">
<stop stop-color="white" stop-opacity="0.3"></stop>
<stop offset="1" stop-color="white" stop-opacity="0.5"></stop>
</linearGradient>
<linearGradient id="paint2_linear_420_36" x1="6.25668" y1="14.0947" x2="14.0948" y2="14.0947" gradientUnits="userSpaceOnUse">
<stop stop-color="white" stop-opacity="0.8"></stop>
<stop offset="1" stop-color="white" stop-opacity="0.5"></stop>
</linearGradient>
<clipPath id="clip0_420_36">
<rect width="28.0538" height="28.0538" fill="white"></rect>
</clipPath>
</defs>
</svg>